<?xml version="1.0" encoding="utf-8"?>
<!-- Generator: Adobe Illustrator 21.0.2, SVG Export Plug-In . SVG Version: 6.00 Build 0)  -->
<svg version="1.1" id="search-icon" xmlns="http://www.w3.org/2000/svg" xmlns:xlink="http://www.w3.org/1999/xlink" x="0px" y="0px"
	 viewBox="0 0 48 48" style="enable-background:new 0 0 48 48;" xml:space="preserve">
<path d="M31,28h-1.6l-0.5-0.5c2-2.3,3.1-5.2,3.1-8.5c0-7.2-5.8-13-13-13S6,11.8,6,19s5.8,13,13,13c3.2,0,6.2-1.2,8.5-3.1l0.5,0.5V31
	l10,10l3-3C41,38,31,28,31,28z M19,28c-5,0-9-4-9-9s4-9,9-9s9,4,9,9S24,28,19,28z"/>
</svg>
