<?xml version="1.0" encoding="utf-8"?>
<!-- Generator: Adobe Illustrator 21.0.2, SVG Export Plug-In . SVG Version: 6.00 Build 0)  -->
<svg version="1.1" id="thumbs-down" xmlns="http://www.w3.org/2000/svg" xmlns:xlink="http://www.w3.org/1999/xlink" x="0px" y="0px"
	 viewBox="0 0 25.9 24" style="enable-background:new 0 0 25.9 24;" xml:space="preserve">
<style type="text/css">
	.st0{fill:none;}
</style>
<path d="M1.8,14.8c0.5,0.6,1.2,1.1,2,1.2c0.2,0,0.3,0,0.5,0l5.3-0.1L8.9,19c0,2.2,1.8,4,4,4c0.4,0,0.8-0.2,0.9-0.6l4-9
	c0.1-0.1,0.1-0.3,0.1-0.4V2c0-0.6-0.4-1-1-1H5.6c0,0,0,0,0,0c-1.5,0-2.7,1.1-3,2.5l-1.4,9C1.1,13.3,1.3,14.1,1.8,14.8z"/>
<circle class="st0" cx="6.2" cy="-2.2" r="0"/>
<rect x="19.2" y="1" transform="matrix(-1 -1.224647e-16 1.224647e-16 -1 44.4976 14.3333)" width="6" height="12.3"/>
</svg>
