<?xml version="1.0" encoding="utf-8"?>
<!-- Generator: Adobe Illustrator 21.0.2, SVG Export Plug-In . SVG Version: 6.00 Build 0)  -->
<svg version="1.1" id="thumbs-up" xmlns="http://www.w3.org/2000/svg" xmlns:xlink="http://www.w3.org/1999/xlink" x="0px" y="0px"
	 viewBox="0 0 25.9 24" style="enable-background:new 0 0 25.9 24;" xml:space="preserve">
<style type="text/css">
	.st0{fill:none;}
</style>
<path d="M24.7,9.2c-0.5-0.6-1.2-1.1-2-1.2c-0.2,0-0.3,0-0.5,0l-5.3,0.1L17.6,5c0-2.2-1.8-4-4-4c-0.4,0-0.8,0.2-0.9,0.6l-4,9
	c-0.1,0.1-0.1,0.3-0.1,0.4v11c0,0.6,0.4,1,1,1h11.3c0,0,0,0,0,0c1.5,0,2.7-1.1,3-2.5l1.4-9C25.3,10.7,25.1,9.9,24.7,9.2z"/>
<circle class="st0" cx="6.2" cy="-2.2" r="0"/>
<rect x="1.2" y="10.7" width="6" height="12.3"/>
</svg>
